<?xml version="1.0" encoding="UTF-8"?>
<svg xmlns="http://www.w3.org/2000/svg" viewBox="0 0 1000 839"
     preserveAspectRatio="xMidYMid meet" class="sanjuans-map">
    <!-- AUTO-GENERATED by scripts/build-sanjuans-svg.js.
         Source: Natural Earth 1:10m via Washington Transit app's clip.js (public domain).
         View bbox: west=-123.3, south=48.3, east=-122.4, north=48.8.
         Projection: equirectangular with cos(centerLat) longitude scaling. -->
    <g class="map-land">
        <path d="M1555.56,-1007.10L1555.56,3021.30L-796.44,3021.30L-792.00,3005.69L-808.56,2974.14L-850.56,2958.36L-877.89,2952.65L-907.67,2949.29L-932.56,2961.72L-942.44,2980.35L-940.11,2992.43L-929.67,3018.11L-929.78,3021.30L-969.11,3021.30L-968.78,2950.97L-977.00,2841.87L-999.78,2706.58L-1013.00,2640.95L-1030.56,2579.52L-1047.67,2534.37L-1059.67,2515.23L-1084.44,2513.39L-1089.44,2496.43L-1110.33,2436.85L-1096.56,2438.19L-1087.00,2447.25L-1079.67,2446.25L-1092.33,2431.81L-1120.44,2429.29L-1130.89,2421.41L-1165.22,2182.39L-1167.56,2103.50L-1194.33,2001.28L-1204.00,1953.78L-1234.22,1866.16L-1239.78,1803.38L-1247.56,1776.02L-1261.56,1771.66L-1274.22,1761.75L-1284.33,1742.62L-1307.33,1714.92L-1315.00,1656.85L-1379.56,1620.93L-1408.89,1561.51L-1436.78,1550.60L-1455.00,1552.78L-1486.78,1497.39L-1506.89,1420.01L-1524.44,1358.41L-1536.89,1296.14L-1548.67,1217.75L-1543.78,1174.62L-1581.11,1090.86L-1594.00,1056.78L-1576.89,1046.88L-1555.67,1020.70L-1543.78,984.61L-1544.22,975.38L-1549.89,964.13L-1561.67,929.89L-1559.56,923.34L-1543.44,918.98L-1536.11,900.52L-1536.89,864.93L-1533.11,849.83L-1516.56,823.98L-1512.78,806.52L-1522.78,798.63L-1521.89,783.52L-1543.44,776.14L-1575.89,742.90L-1589.22,719.07L-1586.11,692.05L-1551.67,686.34L-1486.89,699.94L-1466.22,723.60L-1453.33,727.97L-1437.11,713.53L-1416.56,721.08L-1369.00,755.49L-1286.67,811.05L-1221.33,849.99L-1163.11,870.97L-1107.00,903.87L-1082.22,911.26L-1056.44,901.52L-1030.78,908.91L-955.33,952.21L-901.56,980.41L-888.67,1006.26L-833.56,1045.20L-774.56,1052.92L-745.56,1064.84L-715.44,1065.01L-687.56,1070.38L-637.11,1071.56L-624.33,1080.28L-575.89,1072.90L-543.22,1085.82L-491.11,1074.41L-444.78,1066.02L-379.67,1089.01L-371.00,1105.46L-316.22,1115.53L-296.67,1096.23L-280.44,1088.68L-261.11,1098.58L-248.44,1116.04L-228.33,1120.23L-195.11,1118.55L-151.00,1103.78L-131.67,1103.95L-116.67,1109.49L-140.33,1112.51L-170.44,1122.08L-166.33,1132.82L-135.22,1145.07L-64.44,1145.74L-24.78,1150.44L13.89,1144.40L59.00,1149.27L84.89,1138.02L143.78,1066.86L166.67,1045.54L213.00,1034.29L188.11,1051.25L154.11,1087.84L209.11,1092.70L234.22,1127.11L263.33,1145.41L288.33,1199.96L283.00,1242.59L300.33,1266.93L324.56,1278.01L336.89,1278.01L327.00,1210.70L334.33,1188.88L381.22,1179.15L398.78,1178.48L413.89,1183.18L420.33,1198.28L423.56,1224.97L432.44,1231.85L444.78,1231.68L458.89,1237.73L475.00,1259.21L491.89,1293.29L496.22,1325.34L474.11,1340.95L474.11,1353.38L495.11,1350.69L509.56,1333.40L527.89,1283.72L514.56,1259.04L469.89,1209.02L464.78,1188.88L469.11,1163.87L479.67,1142.56L493.00,1133.66L529.11,1122.75L561.22,1105.80L588.67,1105.96L610.67,1146.08L600.11,1154.47L572.78,1170.08L565.11,1180.49L564.44,1203.65L572.78,1220.10L582.89,1232.69L587.89,1243.60L594.89,1267.94L641.67,1353.38L650.78,1364.12L671.78,1378.22L679.67,1387.78L682.56,1400.88L686.11,1436.63L691.00,1450.73L748.67,1528.11L755.44,1548.25L746.44,1555.13L713.22,1556.81L702.44,1559.66L692.89,1574.27L684.56,1605.99L675.56,1623.78L626.22,1687.90L610.67,1721.14L590.33,1782.57L583.11,1814.80L580.33,1842.16L576.56,1859.78L567.44,1872.37L555.11,1880.09L542.33,1882.61L523.89,1874.55L523.11,1856.25L535.56,1824.36L555.78,1716.60L556.78,1667.26L549.22,1605.49L536.33,1627.64L535.00,1660.21L531.56,1691.26L512.00,1708.71L510.67,1674.64L503.56,1644.43L492.89,1634.69L481.00,1662.89L481.78,1689.41L490.78,1719.62L512.00,1768.13L486.78,1790.46L470.89,1829.40L459.33,1866.33L440.00,1891.34L433.33,1930.11L424.44,1939.00L410.78,1943.70L398.00,1955.62L309.89,2071.77L296.78,2098.13L261.00,2193.13L243.78,2217.64L220.78,2240.30L200.67,2266.82L185.11,2329.26L157.33,2396.73L154.11,2422.41L188.67,2449.60L251.00,2442.89L438.78,2358.29L476.00,2333.28L512.00,2296.19L480.33,2288.97L436.56,2309.95L359.67,2365.01L275.33,2405.29L231.22,2404.62L207.22,2365.01L210.56,2341.34L222.89,2316.50L252.67,2273.53L263.00,2254.73L308.22,2143.61L390.00,2019.07L474.11,1961.83L557.56,1927.42L582.89,1912.32L596.11,1898.22L603.22,1876.06L619.11,1801.20L629.11,1774.85L739.00,1611.86L751.56,1599.28L763.11,1594.07L782.56,1599.28L784.33,1611.70L781.11,1626.97L786.44,1639.90L810.00,1645.27L815.00,1620.59L809.56,1582.66L790.78,1503.27L786.44,1490.84L765.56,1450.23L763.11,1433.44L829.56,1475.74L857.67,1501.42L869.22,1542.54L870.56,1567.05L877.56,1623.78L884.22,1640.73L895.78,1655.00L899.89,1671.96L884.44,1698.31L894.44,1701.83L906.11,1708.55L916.44,1718.62L923.11,1731.54L924.00,1751.52L918.33,1765.78L911.44,1776.02L907.89,1784.25L896.78,1787.10L843.22,1774.34L824.44,1778.54L826.89,1798.18L817.00,1825.20L800.33,1849.37L782.33,1859.78L720.44,1791.63L710.00,1795.16L713.22,1816.14L721.11,1827.22L731.22,1835.11L741.00,1847.36L746.22,1858.27L786.44,2019.07L778.22,2030.65L786.44,2043.24L759.00,2057.67L729.11,2021.08L687.22,1927.42L678.67,1941.19L672.67,1956.96L670.11,1975.43L671.33,1997.25L677.78,2019.91L687.22,2030.15L725.78,2052.81L734.22,2052.64L734.44,2056.50L725.11,2077.48L714.56,2095.27L693.44,2118.77L687.22,2135.89L744.22,2107.53L770.00,2088.89L793.44,2066.07L829.89,2042.06L840.89,2069.93L842.67,2113.23L851.00,2135.89L880.11,2147.98L878.22,2177.18L863.67,2212.60L854.78,2244.16L846.33,2286.96L831.56,2326.40L826.44,2363.33L847.22,2399.25L838.78,2423.08L827.56,2439.53L812.56,2450.28L793.44,2456.65L821.44,2515.57L825.56,2543.60L812.78,2578.01L796.11,2577.84L710.00,2538.06L681.89,2515.74L685.00,2500.30L700.56,2485.02L710.00,2463.03L718.33,2435.17L734.89,2411.67L746.78,2383.47L741.00,2342.18L732.67,2373.40L718.22,2389.35L679.67,2409.82L671.00,2419.56L663.33,2431.81L655.11,2441.88L645.11,2446.25L637.89,2452.12L635.67,2466.39L634.33,2483.17L630.00,2496.94L612.67,2525.47L607.67,2549.31L613.78,2572.64L640.78,2620.98L639.44,2630.88L632.33,2638.60L625.89,2652.54L625.67,2644.31L620.67,2648.17L610.67,2664.12L616.33,2677.21L619.33,2689.13L618.89,2699.53L585.78,2730.75L557.00,2677.21L539.11,2600.17L539.00,2560.89L560.44,2550.15L570.44,2524.30L573.33,2492.07L572.78,2445.91L571.11,2433.16L565.11,2409.82L557.67,2397.74L548.22,2389.35L543.22,2377.09L549.22,2353.59L533.22,2377.93L514.89,2460.18L504.44,2491.06L477.78,2518.93L460.44,2532.35L447.22,2538.06L429.56,2542.43L421.67,2554.68L389.11,2681.74L372.11,2717.33L343.78,2744.35L285.22,2762.14L257.44,2776.41L245.78,2802.59L262.33,2791.18L287.89,2779.26L309.33,2778.93L313.44,2802.59L300.67,2817.36L279.00,2822.90L257.67,2832.47L245.78,2860.00L267.78,2848.92L361.67,2775.57L367.89,2773.39L372.44,2768.02L397.56,2722.53L410.89,2728.40L405.89,2752.74L356.56,2850.93L341.67,2868.73L321.67,2882.83L347.22,2885.34L372.67,2870.24L393.44,2841.37L405.11,2802.59L411.89,2819.21L414.11,2837.00L411.89,2854.63L405.11,2871.41L416.00,2889.88L424.22,2927.14L435.44,2940.23L451.89,2941.91L452.22,2924.96L444.22,2901.29L435.44,2882.83L449.11,2865.87L448.33,2845.23L443.11,2823.41L443.11,2802.59L452.89,2782.79L496.78,2744.35L502.89,2760.80L502.22,2776.07L497.11,2790.00L489.22,2802.59L505.00,2800.24L521.33,2791.68L532.22,2782.79L530.33,2752.57L536.56,2743.17L557.56,2756.77L566.56,2771.04L575.44,2790.00L585.78,2806.79L613.11,2819.88L627.00,2834.15L637.33,2852.78L641.67,2871.41L682.33,2846.07L719.67,2806.29L809.33,2669.99L833.11,2614.60L847.67,2553.67L847.22,2491.06L866.22,2508.52L905.11,2534.20L946.11,2570.62L963.22,2576.67L979.33,2568.95L999.56,2549.48L980.44,2535.71L969.33,2523.63L967.11,2509.53L975.56,2491.06L989.56,2475.79L1009.67,2461.19L1031.00,2450.61L1067.22,2439.53L1079.44,2421.91L1084.89,2396.06L1083.00,2365.01L1073.78,2343.02L1043.33,2299.55L1036.89,2279.07L1037.00,2206.73L1033.11,2186.92L1020.67,2164.93L1012.89,2147.14L991.67,2071.10L990.00,2056.33L995.89,2044.41L1010.56,2024.78L1024.56,2020.58L1037.11,2038.20L1048.78,2062.37L1060.22,2077.48L1065.44,2042.74L1066.67,2016.05L1060.89,1994.06L1045.11,1974.42L995.56,1951.43L985.00,1944.21L974.11,1928.43L968.00,1912.82L972.00,1905.60L984.78,1900.90L989.67,1889.32L992.44,1874.38L999.56,1859.78L1017.00,1831.24L1021.00,1812.45L1017.89,1784.75L1013.78,1758.57L1001.89,1740.77L993.22,1715.60L995.11,1682.53L1000.56,1655.00L1009.00,1632.17L1019.78,1612.87L1052.67,1584.00L1067.00,1556.31L1073.11,1493.03L1083.78,1469.70L1083.89,1453.41L1088.44,1439.99L1097.00,1431.43L1119.22,1414.47L1127.00,1405.24L1136.44,1397.52L1176.00,1388.46L1185.67,1379.06L1208.00,1364.96L1212.11,1343.30L1214.11,1318.63L1231.44,1298.66L1229.44,1290.77L1220.22,1286.24L1213.89,1279.86L1198.22,1278.68L1179.89,1298.66L1102.56,1233.03L1066.44,1191.74L1041.89,1137.18L1035.89,1074.91L1038.11,1022.88L1027.11,984.94L981.22,964.30L968.44,953.22L960.11,949.02L950.89,952.72L945.56,968.83L948.78,1003.41L926.00,1020.53L922.78,1045.54L927.00,1075.75L935.67,1101.77L946.56,1117.55L964.33,1137.18L983.78,1153.97L1000.22,1161.19L1017.67,1172.43L1034.33,1198.95L1057.78,1251.66L1037.78,1252.33L1025.11,1241.76L1004.00,1206.00L993.78,1195.43L900.33,1123.92L877.33,1095.39L859.89,1055.78L851.89,1013.65L854.22,973.70L851.11,923.68L890.11,918.31L927.56,906.39L949.00,904.54L966.78,907.90L979.56,920.66L989.22,937.61L999.11,947.85L1012.22,940.30L1007.00,923.18L1010.44,906.05L1027.44,871.65L1022.89,862.75L1020.22,844.62L1015.67,832.87L1009.11,822.80L971.78,788.56L938.78,767.91L912.67,738.88L898.44,729.98L882.00,725.11L863.67,723.43L851.33,713.87L829.44,669.22L814.44,654.78L814.44,642.19L831.00,624.57L823.44,614.33L806.44,609.13L795.00,607.95L787.00,614.16L769.11,644.54L760.56,654.78L744.00,662.50L726.00,665.02L709.11,660.99L696.00,648.57L685.00,620.71L690.44,606.11L701.33,595.36L707.44,579.25L700.78,549.21L685.67,538.46L670.00,534.94L661.22,526.55L664.00,506.91L678.78,503.89L697.22,505.23L711.22,498.51L741.11,476.19L763.00,503.05L781.11,546.18L799.22,573.54L799.00,529.57L813.00,521.17L832.22,534.60L858.67,570.02L873.00,582.10L888.22,586.80L901.22,579.25L910.22,563.81L911.00,553.40L908.00,543.00L905.33,526.55L901.78,481.90L895.22,454.20L885.00,430.37L871.22,406.87L826.67,374.98L814.44,360.21L837.11,354.67L861.00,363.90L905.22,403.18L924.33,412.07L947.11,399.15L955.22,368.10L950.78,330.16L935.67,296.42L926.11,287.53L906.56,277.29L897.11,263.02L892.11,245.73L885.56,202.09L886.00,193.20L861.00,180.77L865.44,152.58L890.11,101.55L879.33,74.36L855.67,52.70L828.11,38.10L806.11,32.73L784.89,43.47L766.89,69.49L733.67,130.25L721.78,137.30L711.00,129.92L703.00,114.31L699.78,95.84L703.44,87.11L719.00,69.99L722.67,60.93L713.11,38.10L692.22,11.08L671.11,-1.34L661.22,20.31L666.00,-20.48L662.44,-45.99L650.89,-64.12L602.67,-107.76L590.89,-124.21L586.11,-145.19L590.67,-163.49L601.00,-177.92L611.22,-188.83L615.78,-197.56L601.22,-228.11L546.56,-225.76L540.56,-254.80L554.44,-272.42L580.56,-276.62L631.56,-267.22L621.00,-296.76L600.56,-337.71L575.78,-364.74L551.56,-352.65L529.78,-347.45L496.67,-364.23L471.11,-396.97L471.56,-427.68L483.00,-453.36L480.33,-470.82L464.78,-480.89L437.11,-483.91L411.11,-481.56L387.44,-475.02L296.89,-420.63L279.33,-394.78L284.33,-364.74L297.67,-327.64L283.00,-309.52L235.00,-289.04L234.11,-315.56L229.22,-344.26L221.67,-371.28L213.00,-392.27L194.89,-414.25L179.11,-426.00L174.44,-437.92L189.44,-461.08L249.22,-513.12L273.00,-542.49L288.11,-589.15L243.22,-551.22L196.22,-530.24L147.67,-529.73L97.78,-553.91L97.78,-565.15L111.00,-584.96L105.89,-654.28L113.00,-680.80L133.56,-688.02L158.89,-680.30L180.44,-664.18L174.00,-683.99L138.44,-711.18L98.89,-732.83L71.22,-755.33L59.00,-796.62L90.78,-804.34L138.56,-799.97L174.33,-805.85L153.44,-839.25L161.22,-853.52L179.44,-854.36L189.44,-847.48L196.22,-829.85L212.67,-820.45L232.89,-820.12L250.89,-829.85L258.44,-818.27L270.56,-829.68L289.56,-832.37L310.00,-828.17L326.11,-818.27L376.89,-808.87L420.11,-838.41L452.78,-895.82L483.00,-1007.10L460.67,-1007.10L402.11,-882.56L310.33,-850.66L97.78,-911.09L79.56,-912.27L33.33,-898.67L26.00,-925.69L18.22,-945.50L6.78,-956.91L18.00,-977.89L48.33,-1001.39L51.22,-1007.10L-221.89,-1007.10L-240.22,-993.17L-259.56,-987.80L-282.89,-990.32L-316.33,-1007.10Z M1045.11,1382.08L1054.78,1408.43L1059.11,1425.72L1056.11,1433.44L1049.78,1440.15L1029.33,1478.42L1023.89,1485.98L1020.11,1497.56L1014.78,1502.43L1007.78,1502.09L1004.67,1482.96L999.56,1478.42L975.22,1490.01L960.67,1493.03L954.11,1484.63L951.89,1448.71L944.78,1410.78L932.78,1379.90L915.44,1364.79L901.67,1367.81L881.00,1391.65L869.22,1399.37L855.22,1397.52L845.33,1389.46L835.44,1376.37L820.00,1363.95L799.78,1334.58L785.22,1300.17L786.44,1272.14L766.89,1241.25L761.22,1217.08L777.56,1124.43L769.78,1084.65L752.22,1068.70L728.44,1071.89L701.78,1090.02L674.22,1040.34L666.89,1032.61L655.44,1028.75L640.56,1019.35L626.44,1007.60L617.67,997.20L604.78,957.42L609.78,923.34L701.78,733.67L714.89,696.41L743.56,697.08L759.22,688.86L771.67,674.09L782.44,668.21L792.78,686.84L794.89,699.26L796.78,704.47L801.11,709.84L802.56,744.08L871.11,802.32L869.33,849.32L854.56,866.44L837.33,870.47L819.89,862.41L804.56,843.11L784.44,825.99L767.78,840.76L755.11,869.63L747.33,894.14L731.89,859.39L725.78,871.48L723.89,902.03L720.67,923.34L704.56,936.27L640.33,950.37L655.44,971.18L671.00,973.20L705.56,962.79L720.11,966.65L746.33,983.10L759.00,986.79L782.78,998.04L799.33,1026.40L810.00,1063.83L823.67,1139.20L828.22,1231.85L837.11,1314.27L849.44,1332.90L864.44,1322.83L877.56,1283.72L863.44,1246.96L862.22,1209.53L873.33,1190.39L896.44,1209.02L914.44,1233.19L933.33,1253.00L1021.00,1316.28L1038.33,1343.30Z M310.89,504.73L314.67,509.26L334.33,549.54L343.00,557.77L352.33,564.65L372.22,573.54L372.22,584.96L356.33,576.73L344.00,577.57L331.56,582.27L315.00,584.96L300.00,581.10L290.67,571.70L283.00,559.95L273.67,549.54L260.67,539.64L255.11,536.95L231.56,539.13L219.22,536.62L204.00,530.07L189.22,520.84L178.56,510.60L167.56,494.15L161.78,481.56L148.22,430.54L140.11,380.35L139.89,371.96L136.00,337.71L157.33,311.19L189.89,301.96L219.89,320.43L229.11,339.73L248.11,362.39L269.11,381.19L306.00,398.14L328.56,437.25L358.11,451.01L355.56,461.42L341.89,480.72L330.78,488.11L321.56,484.08L314.89,484.42Z M615.78,227.60L610.11,243.89L603.11,251.61L555.11,286.02L550.56,295.92L549.56,307.33L545.67,316.73L532.22,320.43L521.00,314.38L509.56,300.62L482.33,252.45L466.78,206.12L464.00,187.99L459.11,174.06L448.44,168.19L437.89,172.38L433.00,187.99L434.67,206.62L437.67,216.36L438.22,224.75L433.00,239.19L486.78,332.85L472.89,346.27L458.33,352.49L425.44,354.67L407.44,347.79L398.44,331.34L393.44,312.03L387.44,296.42L368.44,277.62L355.44,270.91L349.44,280.31L348.67,303.31L344.89,327.98L336.56,340.40L322.67,326.64L308.67,304.82L303.89,291.22L304.00,274.43L310.11,264.36L336.56,233.98L345.78,227.60L358.00,221.90L411.89,153.75L424.44,148.72L448.22,147.54L491.33,153.25Z M673.67,359.37L695.00,388.07L682.33,407.88L679.89,424.66L673.22,430.54L663.33,433.22L650.78,433.22L641.22,422.65L625.56,374.14L627.33,351.81L636.89,333.18L649.44,325.63L663.44,335.03L670.67,348.62Z M14.56,314.38L18.78,316.73L21.89,333.52L13.33,350.30L-3.22,340.74L-14.11,321.43L-28.11,303.31L-40.78,283.50L-42.22,278.30L-36.33,286.18L-35.44,277.96L-42.89,257.65L-41.67,254.46L-29.78,268.56L-18.89,287.02L-5.89,304.14L6.00,311.19Z M754.00,220.72L760.78,237.34L763.22,254.46L755.00,258.66L740.44,248.92L716.56,227.10L708.67,217.70L689.56,187.66L663.22,154.59L648.33,142.34L644.11,126.06L649.78,102.22L668.33,109.61L698.44,159.79L708.56,171.71L725.11,183.46L738.67,195.88L746.22,206.29Z M14.22,-21.48L37.78,0.00L53.56,16.45L56.67,37.93L55.11,56.90L66.11,63.95L89.78,63.95L124.33,73.52L130.67,94.84L125.89,106.75L111.67,113.97L66.11,106.75L47.22,102.05L-7.78,59.42L-12.56,47.50L-12.56,4.53L-25.11,-9.57L-25.11,-21.48L-14.11,-28.70L1.56,-26.18Z M234.44,54.55L220.33,63.95L199.78,59.42L181.00,59.42L157.33,61.60L127.44,42.63L107.00,26.02L107.00,-14.27L102.33,-26.18L86.56,-38.10L85.00,-54.89L107.00,-50.02L133.78,-26.18L176.22,-2.52L273.78,7.05L284.67,18.80L286.33,26.02L273.78,28.37L254.89,35.58L247.00,40.28Z M-23.56,510.60L-2.44,530.07L14.22,556.76L21.56,590.16L14.33,630.95L-2.78,647.40L-33.78,663.34L-63.33,670.39L-152.56,596.54L-170.44,615.00L-200.22,684.32L-218.00,699.60L-234.56,704.13L-239.00,715.38L-239.67,730.65L-244.22,746.43L-253.22,758.18L-272.78,777.82L-282.89,792.42L-278.44,817.26L-302.44,829.01L-328.11,822.47L-328.44,792.42L-347.22,794.10L-377.78,811.05L-393.22,815.25L-408.67,809.71L-427.78,785.20L-450.44,775.47L-482.00,753.98L-534.00,733.67L-601.33,735.35L-656.44,726.96L-923.89,615.17L-1210.22,473.34L-1238.00,470.32L-1264.33,460.75L-1255.22,438.93L-1230.89,415.60L-1211.89,401.67L-1223.78,393.94L-1260.78,387.40L-1272.56,389.08L-1285.89,398.31L-1297.22,409.55L-1317.44,436.07L-1348.44,424.49L-1517.11,380.68L-1590.22,341.74L-1632.67,310.35L-1666.56,269.90L-1684.67,256.64L-1777.78,214.68L-1777.78,-304.82L-1758.56,-319.75L-1718.89,-370.11L-1688.22,-433.05L-1676.00,-502.21L-1667.67,-531.75L-1652.22,-559.78L-1643.78,-590.83L-1665.33,-652.60L-1676.00,-749.62L-1682.89,-743.41L-1689.56,-735.18L-1695.11,-725.45L-1698.78,-714.20L-1698.33,-701.11L-1691.11,-640.18L-1691.11,-570.86L-1697.78,-536.95L-1713.33,-510.10L-1731.11,-486.09L-1744.33,-461.08L-1754.67,-389.92L-1764.44,-359.20L-1777.78,-351.48L-1777.78,-1007.10L-1460.22,-1007.10L-1440.00,-992.33L-1383.44,-968.83L-1272.56,-944.49L-1208.11,-941.14L-1177.78,-934.25L-1154.33,-916.29L-1143.33,-904.38L-1132.89,-897.83L-1009.44,-852.85L-998.22,-854.52L-983.78,-862.41L-971.89,-864.26L-954.67,-856.87L-899.44,-805.85L-918.67,-796.11L-959.00,-791.75L-976.00,-772.45L-961.00,-763.55L-946.33,-764.39L-914.33,-772.45L-898.44,-768.92L-871.78,-753.14L-857.11,-749.62L-788.22,-748.44L-753.00,-740.22L-727.67,-720.41L-722.00,-710.01L-717.56,-696.91L-718.11,-685.50L-738.00,-676.60L-735.67,-666.36L-723.56,-645.38L-700.89,-576.57L-685.67,-562.13L-671.67,-559.95L-648.44,-565.15L-601.89,-549.88L-587.11,-553.91L-570.44,-534.77L-561.00,-510.26L-553.11,-481.90L-541.44,-451.52L-507.67,-406.37L-501.56,-382.70L-526.44,-370.45L-516.56,-348.96L-512.11,-328.65L-516.56,-314.72L-533.22,-312.03L-548.78,-324.79L-560.11,-344.76L-573.33,-357.02L-594.56,-346.44L-594.56,-336.04L-541.44,-277.62L-488.56,-239.86L-480.89,-225.59L-464.33,-203.94L-326.44,-62.10L-311.00,-36.26L-329.00,-19.13L-333.89,-7.39L-335.89,4.53L-331.89,9.90L-313.89,3.69L-305.67,3.02L-298.11,9.90L-294.78,32.06L-296.22,65.97L-303.33,90.30L-316.67,84.43L-332.00,69.66L-352.89,61.60L-374.00,60.59L-389.78,67.14L-389.78,78.72L-368.44,97.19L-289.89,147.54L-280.00,158.79L-256.56,193.03L-251.89,204.78L-255.44,227.10L-263.33,239.02L-269.22,251.27L-267.67,274.43L-260.78,288.53L-250.33,300.96L-241.11,317.57L-237.44,343.42L-241.78,368.60L-251.00,382.53L-260.89,393.78L-267.67,412.07L-261.67,436.24L-237.33,423.65L-191.11,377.66L-198.33,351.14L-194.44,300.12L-198.78,274.43L-152.56,251.61L-179.78,229.62L-190.89,214.18L-191.11,193.20L-181.11,185.31L-162.22,181.11L-142.56,180.44L-129.78,182.79L-117.11,190.85L-110.22,198.90L-107.56,211.66L-107.11,233.31L-104.67,240.03L-100.33,258.15L-98.56,277.29L-103.56,286.02L-100.00,301.46L-61.44,401.67L-50.89,464.27L-41.22,490.12Z M57.44,622.05L68.00,620.88L81.56,628.10L79.22,633.47L69.89,634.31L66.78,638.67L62.89,638.33L54.33,629.10Z M560.56,478.88L565.44,484.08L568.22,485.09L565.89,491.13L552.44,513.29L537.56,527.22L534.67,534.60L533.22,535.78L529.44,534.27L533.22,512.95L530.67,504.39L526.33,500.70L522.22,493.98L512.56,484.92L512.89,479.38L519.11,470.99L529.56,462.26L565.33,463.77L562.78,468.47Z M798.22,421.98L801.67,436.41L800.78,449.00L794.33,450.17L784.11,442.12L775.00,443.29L750.89,454.37L729.44,453.53L716.89,430.54L721.44,390.59L718.22,383.54L718.56,368.93L723.22,356.18L731.22,359.37L748.33,384.71Z M411.78,361.88L418.89,360.21L428.44,361.38L432.11,373.47L426.67,389.08L417.33,396.29L412.89,397.13L405.89,396.29L400.44,397.97L396.67,402.00L395.00,407.71L393.89,417.78L387.00,423.82L349.89,411.23L347.44,402.00L352.11,399.48L351.11,394.28L338.89,376.15L334.33,373.30L321.00,370.78L315.78,365.41L317.33,358.86L330.56,358.36L366.67,344.43L377.67,352.99L398.56,357.35L399.67,360.88L399.00,369.44L403.44,376.32L407.56,373.80L407.89,366.25Z M702.11,296.93L705.89,308.17L707.00,323.11L686.56,314.38L666.56,296.76L674.44,293.23L695.67,290.88Z M206.89,271.92L210.33,273.09L213.22,276.62L212.78,278.13L176.78,271.92L166.22,264.70L151.11,257.99L152.00,251.61L164.22,254.29L198.89,266.04Z M143.56,205.78L145.67,213.17L141.89,220.56L134.00,220.56L122.11,214.18L113.67,213.51L116.11,217.20L125.56,221.90L128.78,230.79L122.56,235.16L71.56,201.25L67.67,190.01L76.22,183.63L94.11,186.82L101.78,195.21L103.89,199.91L117.89,208.13L125.33,208.81L135.22,200.08L139.67,200.92Z M754.78,181.95L728.00,160.13L718.00,150.56L727.11,152.58L740.89,150.73L745.78,155.09L754.00,155.26L756.78,152.58L752.89,134.62L761.22,141.16L765.89,150.39L764.33,175.40Z M324.00,172.38L324.00,180.61L319.11,188.66L291.89,206.62L286.89,203.77L285.22,179.10L281.67,176.24L260.22,167.18L267.33,158.28L281.56,146.87L287.22,139.48L317.11,131.59L322.44,139.99Z M6.22,140.49L3.33,159.63L-0.78,164.66L0.22,169.36L-5.22,167.35L-22.89,155.93L-37.78,135.46L-32.44,123.71L-33.33,118.17L-31.00,114.47L-12.11,116.49L-2.67,129.58Z M449.67,59.08L439.78,59.59L430.78,65.80L440.67,73.35L445.11,71.00L459.22,88.79L445.78,86.44L439.78,80.40L437.00,80.06L440.22,84.26L437.89,87.45L430.11,83.59L426.33,81.07L428.56,79.23L423.67,74.86L419.56,64.79L425.00,64.12L424.89,61.77L421.00,59.42L421.78,53.21L436.33,49.01L452.22,52.54L463.56,62.78Z M520.72,395.10L526.46,418.42L537.01,438.41L541.64,445.63L545.89,449.89L553.85,448.97L556.63,444.52L564.03,441.19L573.29,432.67L581.80,424.53L585.50,418.79L587.17,412.68L589.20,405.28L588.09,395.47L582.91,389.00L577.54,382.89L573.47,377.71L567.73,369.94L559.59,359.95L552.37,357.73L544.97,353.48L539.41,355.51L534.23,359.77L530.90,363.84L527.38,364.21L522.76,368.28L520.90,374.20L519.61,381.23L522.02,388.63Z M486.78,521.51L490.56,549.21L500.67,568.00L515.22,570.86L532.22,549.54L546.33,573.71L548.78,600.90L541.00,625.58L524.78,642.19L455.67,630.95L462.78,601.74L445.89,591.00L420.67,585.80L402.67,573.54L397.22,544.17L403.33,514.96L416.78,491.63L433.00,480.72L426.44,463.43L425.56,447.15L433.00,424.49L454.47,382.55L462.59,379.69L466.57,410.11L488.11,437.08L490.00,467.80Z"/>
    </g>
    <g class="map-routes"></g>
    <g class="map-terminals"></g>
</svg>
